<svg xmlns="http://www.w3.org/2000/svg" xmlns:xlink="http://www.w3.org/1999/xlink">
    <symbol id="artists" width="20" height="20" viewBox="0 0 20 20" fill="currentColor">
        <path
            d="M10 14.5c1.25 0 2.313-.437 3.188-1.312S14.5 11.25 14.5 10c0-1.25-.437-2.313-1.312-3.188S11.25 5.5 10 5.5c-1.25 0-2.313.437-3.188 1.312S5.5 8.75 5.5 10c0 1.25.437 2.313 1.312 3.188S8.75 14.5 10 14.5Zm0-3.5a.965.965 0 0 1-.712-.288A.965.965 0 0 1 9 10c0-.283.096-.52.288-.713A.967.967 0 0 1 10 9a.97.97 0 0 1 .713.287A.97.97 0 0 1 11 10c0 .283-.096.52-.287.712A.968.968 0 0 1 10 11Zm0 9a9.733 9.733 0 0 1-3.9-.788 10.092 10.092 0 0 1-3.175-2.137c-.9-.9-1.612-1.958-2.137-3.175A9.732 9.732 0 0 1 0 10c0-1.383.263-2.683.788-3.9a10.092 10.092 0 0 1 2.137-3.175c.9-.9 1.958-1.613 3.175-2.138A9.743 9.743 0 0 1 10 0c1.383 0 2.683.262 3.9.787a10.105 10.105 0 0 1 3.175 2.138c.9.9 1.612 1.958 2.137 3.175A9.733 9.733 0 0 1 20 10a9.733 9.733 0 0 1-.788 3.9 10.092 10.092 0 0 1-2.137 3.175c-.9.9-1.958 1.612-3.175 2.137A9.733 9.733 0 0 1 10 20Zm0-2c2.233 0 4.125-.775 5.675-2.325C17.225 14.125 18 12.233 18 10c0-2.233-.775-4.125-2.325-5.675C14.125 2.775 12.233 2 10 2c-2.233 0-4.125.775-5.675 2.325C2.775 5.875 2 7.767 2 10c0 2.233.775 4.125 2.325 5.675C5.875 17.225 7.767 18 10 18Z" />
    </symbol>
    <symbol id="close" width="17" height="18" viewBox="0 0 17 18" fill="none">
        <path
            d="M4.91666 12.5833C5.08332 12.75 5.28471 12.8333 5.52082 12.8333C5.75694 12.8333 5.95832 12.75 6.12499 12.5833L8.49999 10.2083L10.875 12.5833C11.0417 12.75 11.2465 12.8333 11.4896 12.8333C11.7326 12.8333 11.9375 12.75 12.1042 12.5833C12.2708 12.4167 12.3507 12.2153 12.3437 11.9792C12.3368 11.7431 12.25 11.5347 12.0833 11.3542L9.72916 9L12.1042 6.625C12.2708 6.45833 12.3542 6.25347 12.3542 6.01042C12.3542 5.76736 12.2708 5.5625 12.1042 5.39583C11.9375 5.22917 11.7326 5.14583 11.4896 5.14583C11.2465 5.14583 11.0417 5.22917 10.875 5.39583L8.49999 7.77083L6.10416 5.375C5.93749 5.20833 5.73957 5.12847 5.51041 5.13542C5.28124 5.14236 5.08332 5.22917 4.91666 5.39583C4.74999 5.5625 4.66666 5.76389 4.66666 6C4.66666 6.23611 4.74999 6.4375 4.91666 6.60417L7.29166 9L4.89582 11.3958C4.72916 11.5625 4.6493 11.7604 4.65624 11.9896C4.66319 12.2188 4.74999 12.4167 4.91666 12.5833ZM8.49999 17.3333C7.34721 17.3333 6.26388 17.1146 5.24999 16.6771C4.2361 16.2396 3.35416 15.6458 2.60416 14.8958C1.85416 14.1458 1.26041 13.2639 0.822907 12.25C0.385406 11.2361 0.166656 10.1528 0.166656 9C0.166656 7.84722 0.385406 6.76389 0.822907 5.75C1.26041 4.73611 1.85416 3.85417 2.60416 3.10417C3.35416 2.35417 4.2361 1.76042 5.24999 1.32292C6.26388 0.885416 7.34721 0.666666 8.49999 0.666666C9.65277 0.666666 10.7361 0.885416 11.75 1.32292C12.7639 1.76042 13.6458 2.35417 14.3958 3.10417C15.1458 3.85417 15.7396 4.73611 16.1771 5.75C16.6146 6.76389 16.8333 7.84722 16.8333 9C16.8333 10.1528 16.6146 11.2361 16.1771 12.25C15.7396 13.2639 15.1458 14.1458 14.3958 14.8958C13.6458 15.6458 12.7639 16.2396 11.75 16.6771C10.7361 17.1146 9.65277 17.3333 8.49999 17.3333ZM8.49999 15.5833C10.3194 15.5833 11.8715 14.941 13.1562 13.6563C14.441 12.3715 15.0833 10.8194 15.0833 9C15.0833 7.18056 14.441 5.62847 13.1562 4.34375C11.8715 3.05903 10.3194 2.41667 8.49999 2.41667C6.68055 2.41667 5.12846 3.05903 3.84374 4.34375C2.55902 5.62847 1.91666 7.18056 1.91666 9C1.91666 10.8194 2.55902 12.3715 3.84374 13.6563C5.12846 14.941 6.68055 15.5833 8.49999 15.5833Z"
            fill="#1C1B1F"
        />
    </symbol>
    <symbol id="explicit" width="16" height="16"
        fill="currentColor" stroke="currentColor" stroke-width="0" viewBox="0 0 24 24">
        <path fill="none" stroke="none" d="M0 0h24v24H0z" />
        <path stroke="none"
            d="M19 3H5c-1.1 0-2 .9-2 2v14c0 1.1.9 2 2 2h14c1.1 0 2-.9 2-2V5c0-1.1-.9-2-2-2zm-4 6h-4v2h4v2h-4v2h4v2H9V7h6v2z" />
    </symbol>
    <symbol id="genres" width="23" height="20" viewBox="0 0 23 20" fill="currentColor">
        <path
            d="M18.667 5.5c.283 0 .52-.096.712-.287a.968.968 0 0 0 .288-.713.968.968 0 0 0-.288-.713.967.967 0 0 0-.712-.287.967.967 0 0 0-.712.287.968.968 0 0 0-.288.713c0 .283.096.521.288.713a.967.967 0 0 0 .712.287Zm-4 0a.97.97 0 0 0 .713-.287.97.97 0 0 0 .287-.713.97.97 0 0 0-.287-.713.97.97 0 0 0-.713-.287.967.967 0 0 0-.712.287.968.968 0 0 0-.288.713c0 .283.096.521.288.713a.967.967 0 0 0 .712.287Zm.2 3.4h3.6c.216 0 .383-.07.5-.212a.397.397 0 0 0 .05-.463c-.184-.383-.492-.683-.925-.9A3.142 3.142 0 0 0 16.667 7c-.517 0-.992.108-1.425.325-.434.217-.742.517-.925.9a.396.396 0 0 0 .05.463c.116.141.283.212.5.212ZM6.667 20c-1.667 0-3.084-.583-4.25-1.75C1.25 17.083.667 15.667.667 14V9c0-.55.196-1.02.588-1.413A1.925 1.925 0 0 1 2.667 7h8c.55 0 1.02.196 1.413.587.39.392.587.863.587 1.413v5c0 1.667-.584 3.083-1.75 4.25C9.75 19.417 8.333 20 6.667 20Zm0-2c1.1 0 2.041-.392 2.825-1.175.783-.783 1.175-1.725 1.175-2.825V9h-8v5c0 1.1.391 2.042 1.175 2.825C4.625 17.608 5.567 18 6.667 18Zm10-5c-.434 0-.863-.046-1.287-.137a5.492 5.492 0 0 1-1.213-.413V10.1a4.49 4.49 0 0 0 1.188.662c.424.159.862.238 1.312.238 1.1 0 2.041-.392 2.825-1.175.783-.783 1.175-1.725 1.175-2.825V2h-8v3.5h-2V2c0-.55.196-1.02.588-1.413A1.925 1.925 0 0 1 12.667 0h8c.55 0 1.02.196 1.413.587.39.392.587.863.587 1.413v5c0 1.667-.584 3.083-1.75 4.25-1.167 1.167-2.584 1.75-4.25 1.75Zm-12-.5a.968.968 0 0 0 .713-.288.967.967 0 0 0 .287-.712.97.97 0 0 0-.287-.713.97.97 0 0 0-.713-.287.97.97 0 0 0-.713.287.97.97 0 0 0-.287.713c0 .283.095.52.287.712.192.192.43.288.713.288Zm4 0a.968.968 0 0 0 .713-.288.967.967 0 0 0 .287-.712.97.97 0 0 0-.287-.713.97.97 0 0 0-.713-.287.967.967 0 0 0-.712.287.968.968 0 0 0-.288.713c0 .283.096.52.288.712a.965.965 0 0 0 .712.288Zm-2 3.4c.516 0 .983-.108 1.4-.325.416-.217.716-.492.9-.825a.531.531 0 0 0 0-.5c-.084-.167-.234-.25-.45-.25h-3.7c-.234 0-.388.083-.462.25a.555.555 0 0 0 .012.5c.183.333.487.608.913.825.424.217.887.325 1.387.325Z" />
    </symbol>
    <symbol id="log-out" width="18" height="18"
        viewBox="0 0 18 18" fill="currentColor">
        <path
            d="M12.325 13.275a1.112 1.112 0 0 1-.275-.738c0-.275.092-.504.275-.687l1.85-1.85H7a.965.965 0 0 1-.712-.288A.965.965 0 0 1 6 9c0-.283.096-.521.288-.713A.967.967 0 0 1 7 8h7.175l-1.85-1.85c-.2-.2-.3-.437-.3-.712 0-.275.1-.513.3-.713.183-.2.413-.3.688-.3.275 0 .504.092.687.275l3.6 3.6c.1.1.171.208.213.325.041.117.062.242.062.375s-.02.258-.062.375a.883.883 0 0 1-.213.325l-3.6 3.6c-.217.217-.454.312-.712.287a1.052 1.052 0 0 1-.663-.312ZM2 18c-.55 0-1.021-.196-1.413-.587A1.928 1.928 0 0 1 0 16V2C0 1.45.196.979.587.587A1.928 1.928 0 0 1 2 0h6a.97.97 0 0 1 .713.287A.97.97 0 0 1 9 1c0 .283-.096.52-.287.712A.968.968 0 0 1 8 2H2v14h6c.283 0 .521.096.713.288A.967.967 0 0 1 9 17c0 .283-.096.52-.287.712A.968.968 0 0 1 8 18H2Z" />
    </symbol>
    <symbol id="playing" width="12" height="14" viewBox="0 0 12 14" fill="none">
        <path
            d="M2.90002 11V3.00001H4.10002V11H2.90002ZM5.40002 13.4V0.600006H6.60002V13.4H5.40002ZM0.400024 8.60001V5.40001H1.60002V8.60001H0.400024ZM7.90002 11V3.00001H9.10002V11H7.90002ZM10.4 8.60001V5.40001H11.6V8.60001H10.4Z"
            fill="#FFDF9E"
        />
    </symbol>
    <symbol id="play" width="20" height="20" fill="currentColor"
        stroke="currentColor" stroke-width="0" viewBox="0 0 16 16">
        <path stroke="none"
            d="m11.596 8.697-6.363 3.692c-.54.313-1.233-.066-1.233-.697V4.308c0-.63.692-1.01 1.233-.696l6.363 3.692a.802.802 0 0 1 0 1.393z" />
    </symbol>
    <symbol id="playlist" width="19" height="14">
        <path
            d="M13 14a2.893 2.893 0 0 1-2.125-.875A2.893 2.893 0 0 1 10 11c0-.833.292-1.542.875-2.125A2.893 2.893 0 0 1 13 8c.183 0 .358.012.525.037.167.025.325.08.475.163V1c0-.283.096-.521.288-.713A.967.967 0 0 1 15 0h3c.283 0 .52.096.712.287.192.192.288.43.288.713a.968.968 0 0 1-.288.713A.967.967 0 0 1 18 2h-2v9c0 .833-.292 1.542-.875 2.125A2.893 2.893 0 0 1 13 14ZM1 2a.967.967 0 0 1-.712-.287A.968.968 0 0 1 0 1C0 .717.096.479.288.287A.967.967 0 0 1 1 0h10a.97.97 0 0 1 .713.287A.97.97 0 0 1 12 1a.97.97 0 0 1-.287.713A.97.97 0 0 1 11 2H1Zm0 4a.965.965 0 0 1-.712-.288A.965.965 0 0 1 0 5c0-.283.096-.521.288-.713A.967.967 0 0 1 1 4h10a.97.97 0 0 1 .713.287A.97.97 0 0 1 12 5c0 .283-.096.52-.287.712A.968.968 0 0 1 11 6H1Zm0 4a.965.965 0 0 1-.712-.288A.965.965 0 0 1 0 9c0-.283.096-.521.288-.713A.967.967 0 0 1 1 8h6a.97.97 0 0 1 .713.287A.97.97 0 0 1 8 9c0 .283-.096.52-.287.712A.968.968 0 0 1 7 10H1Z" />
    </symbol>
    <symbol
        id="profile"
        width="20"
        height="20"
        viewBox="0 0 20 20"
        fill="currentColor"
    >
        <path
            d="M3.85 15.1C4.7 14.45 5.65 13.9373 6.7 13.562C7.75 13.1873 8.85 13 10 13C11.15 13 12.25 13.1873 13.3 13.562C14.35 13.9373 15.3 14.45 16.15 15.1C16.7333 14.4167 17.1877 13.6417 17.513 12.775C17.8377 11.9083 18 10.9833 18 10C18 7.78333 17.221 5.89567 15.663 4.337C14.1043 2.779 12.2167 2 10 2C7.78333 2 5.896 2.779 4.338 4.337C2.77933 5.89567 2 7.78333 2 10C2 10.9833 2.16267 11.9083 2.488 12.775C2.81267 13.6417 3.26667 14.4167 3.85 15.1ZM10 11C9.01667 11 8.18733 10.6627 7.512 9.988C6.83733 9.31267 6.5 8.48333 6.5 7.5C6.5 6.51667 6.83733 5.68733 7.512 5.012C8.18733 4.33733 9.01667 4 10 4C10.9833 4 11.8127 4.33733 12.488 5.012C13.1627 5.68733 13.5 6.51667 13.5 7.5C13.5 8.48333 13.1627 9.31267 12.488 9.988C11.8127 10.6627 10.9833 11 10 11ZM10 20C8.61667 20 7.31667 19.7373 6.1 19.212C4.88333 18.6873 3.825 17.975 2.925 17.075C2.025 16.175 1.31267 15.1167 0.788 13.9C0.262667 12.6833 0 11.3833 0 10C0 8.61667 0.262667 7.31667 0.788 6.1C1.31267 4.88333 2.025 3.825 2.925 2.925C3.825 2.025 4.88333 1.31233 6.1 0.787C7.31667 0.262333 8.61667 0 10 0C11.3833 0 12.6833 0.262333 13.9 0.787C15.1167 1.31233 16.175 2.025 17.075 2.925C17.975 3.825 18.6873 4.88333 19.212 6.1C19.7373 7.31667 20 8.61667 20 10C20 11.3833 19.7373 12.6833 19.212 13.9C18.6873 15.1167 17.975 16.175 17.075 17.075C16.175 17.975 15.1167 18.6873 13.9 19.212C12.6833 19.7373 11.3833 20 10 20ZM10 18C10.8833 18 11.7167 17.871 12.5 17.613C13.2833 17.3543 14 16.9833 14.65 16.5C14 16.0167 13.2833 15.6457 12.5 15.387C11.7167 15.129 10.8833 15 10 15C9.11667 15 8.28333 15.129 7.5 15.387C6.71667 15.6457 6 16.0167 5.35 16.5C6 16.9833 6.71667 17.3543 7.5 17.613C8.28333 17.871 9.11667 18 10 18ZM10 9C10.4333 9 10.7917 8.85833 11.075 8.575C11.3583 8.29167 11.5 7.93333 11.5 7.5C11.5 7.06667 11.3583 6.70833 11.075 6.425C10.7917 6.14167 10.4333 6 10 6C9.56667 6 9.20833 6.14167 8.925 6.425C8.64167 6.70833 8.5 7.06667 8.5 7.5C8.5 7.93333 8.64167 8.29167 8.925 8.575C9.20833 8.85833 9.56667 9 10 9Z" />
    </symbol>
    <symbol id="replay" width="70" height="24" fill="none">
        <path fill="#fff"
            d="M7.424 6.071v3.6H5.9c-1.39 0-1.973.61-1.973 2.068v5.808H0V6.126h2.63l.614 1.266c.8-.931 1.782-1.32 3.14-1.32h1.04Zm13.042 5.651a7.23 7.23 0 0 1-.082 1.042h-8.463c.256 1.31 1.086 1.988 2.326 1.988.917 0 1.684-.402 2.061-1.07h3.908c-.8 2.605-3.109 4.234-5.969 4.234-3.557 0-6.191-2.606-6.191-6.093 0-3.488 2.613-6.077 6.191-6.077 3.681 0 6.219 2.628 6.219 5.977v-.001Zm-8.482-1.137h4.61c-.345-1.142-1.167-1.764-2.352-1.764-1.139.014-1.934.635-2.253 1.778l-.005-.014Zm22.912 1.252c0 3.558-2.492 6.093-5.977 6.093a5.336 5.336 0 0 1-2.787-.757v4.49h-3.879V6.11h2.671l.492.907a5.275 5.275 0 0 1 3.5-1.283c3.482.016 5.98 2.543 5.98 6.103Zm-3.951 0c0-1.5-1.08-2.614-2.553-2.614-1.472 0-2.55 1.123-2.55 2.614 0 1.491 1.073 2.61 2.544 2.61 1.47 0 2.552-1.11 2.552-2.611l.007.001ZM36.69 2h3.927v15.553H36.69V2Zm18.53 4.11v11.423h-3.041l-.336-.802a5.388 5.388 0 0 1-3.441 1.194c-3.485 0-5.977-2.547-5.977-6.093 0-3.545 2.492-6.054 5.977-6.054a5.405 5.405 0 0 1 3.484 1.226l.408-.894h2.925Zm-3.734 5.724c0-1.483-1.08-2.596-2.551-2.596-1.47 0-2.56 1.113-2.56 2.596s1.08 2.604 2.56 2.604 2.55-1.113 2.55-2.604Zm18.126-5.708L64.835 17.04c-1.537 3.496-2.949 4.758-5.893 4.758h-1.345v-3.38h1.08c1.503 0 1.956-.392 2.487-1.814l-4.71-10.478h4.267l2.42 6.292 2.253-6.292h4.218ZM56.416 21.794v-3.347l-2.486 1.492 2.486 1.855Z" />
    </symbol>
    <symbol id="spotify" xmlns="http://www.w3.org/2000/svg" width="22" height="22" fill="none"
        viewBox="0 0 22 22">
        <path fill="#2EBD59"
            d="M11 0C4.925 0 0 4.925 0 11s4.925 11 11 11 11-4.925 11-11S17.075 0 11 0Zm4.787 15.964a.752.752 0 0 1-1.029.27c-1.976-1.155-4.26-1.34-5.828-1.293-1.737.053-3.01.395-3.023.399a.753.753 0 0 1-.399-1.45c.057-.017 1.428-.389 3.334-.452a14.682 14.682 0 0 1 3.212.233c1.277.242 2.443.668 3.463 1.264.36.21.48.67.27 1.029Zm1.399-2.905a.89.89 0 0 1-1.22.32c-2.34-1.368-5.045-1.588-6.903-1.531-2.057.062-3.566.468-3.581.472a.892.892 0 0 1-.472-1.718c.068-.019 1.691-.46 3.949-.534a17.4 17.4 0 0 1 3.805.275c1.513.287 2.893.791 4.102 1.498a.89.89 0 0 1 .32 1.219Zm.86-2.64c-.188 0-.378-.049-.551-.15C11.928 7.016 4.708 8.95 4.635 8.97a1.093 1.093 0 1 1-.58-2.107c.083-.023 2.075-.564 4.844-.656 1.631-.053 3.202.06 4.667.338 1.856.352 3.549.97 5.032 1.837a1.093 1.093 0 0 1-.552 2.037Z" />
    </symbol>
    <symbol id="three-dots-vertical" width="4" height="17" viewBox="0 0 4 17">
        <path
            fillRule="evenodd"
            clipRule="evenodd"
            d="M2 4.79779C0.9 4.79779 0 3.89779 0 2.79779C0 1.69779 0.9 0.797791 2 0.797791C3.1 0.797791 4 1.69779 4 2.79779C4 3.89779 3.1 4.79779 2 4.79779ZM2 6.79779C3.1 6.79779 4 7.69779 4 8.79779C4 9.89779 3.1 10.7978 2 10.7978C0.9 10.7978 0 9.89779 0 8.79779C0 7.69779 0.9 6.79779 2 6.79779ZM4 14.7978C4 13.6978 3.1 12.7978 2 12.7978C0.9 12.7978 0 13.6978 0 14.7978C0 15.8978 0.9 16.7978 2 16.7978C3.1 16.7978 4 15.8978 4 14.7978Z"
            fill="white"
        />
    </symbol>
    <symbol id="tracks" width="13" height="18" viewBox="0 0 13 18" fill="currentColor">
        <path
            d="M4.333 18c-1.1 0-2.041-.392-2.825-1.175C.725 16.042.333 15.1.333 14s.392-2.042 1.175-2.825C2.292 10.392 3.233 10 4.333 10c.384 0 .738.046 1.062.137.326.092.638.23.938.413V2c0-.55.196-1.021.588-1.413A1.925 1.925 0 0 1 8.333 0h2c.55 0 1.021.196 1.413.587.392.392.587.863.587 1.413s-.195 1.02-.587 1.412A1.927 1.927 0 0 1 10.333 4h-2v10c0 1.1-.391 2.042-1.175 2.825C6.375 17.608 5.433 18 4.333 18Z" />
    </symbol>
</svg>
